<svg width="251" height="251" viewBox="0 0 251 251" fill="none" xmlns="http://www.w3.org/2000/svg">
<path d="M66.9333 242.633C66.9333 244.899 66.1054 246.86 64.4495 248.516C62.7936 250.172 60.8326 251 58.5667 251C56.3007 251 54.3398 250.172 52.6839 248.516C51.028 246.86 50.2 244.899 50.2 242.633V217.533H66.9333V242.633Z" fill="black"/>
<path d="M100.4 242.633C100.4 244.899 99.5721 246.86 97.9161 248.516C96.2602 250.172 94.2993 251 92.0333 251C89.7674 251 87.8064 250.172 86.1505 248.516C84.4946 246.86 83.6667 244.899 83.6667 242.633V217.533H100.4V242.633Z" fill="black"/>
<path d="M133.867 242.633C133.867 244.899 133.039 246.86 131.383 248.516C129.727 250.172 127.766 251 125.5 251C123.234 251 121.273 250.172 119.617 248.516C117.961 246.86 117.133 244.899 117.133 242.633V217.533H133.867V242.633Z" fill="black"/>
<path d="M167.333 242.633C167.333 244.899 166.505 246.86 164.849 248.516C163.194 250.172 161.233 251 158.967 251C156.701 251 154.74 250.172 153.084 248.516C151.428 246.86 150.6 244.899 150.6 242.633V217.533H167.333V242.633Z" fill="black"/>
<path d="M200.8 242.633C200.8 244.899 199.972 246.86 198.316 248.516C196.66 250.172 194.699 251 192.433 251C190.167 251 188.206 250.172 186.551 248.516C184.895 246.86 184.067 244.899 184.067 242.633V217.533H200.8V242.633Z" fill="black"/>
<path d="M33.4667 200.8H8.36667C6.10069 200.8 4.13976 199.972 2.48385 198.316C0.827951 196.66 0 194.699 0 192.433C0 190.167 0.827951 188.206 2.48385 186.551C4.13976 184.895 6.10069 184.067 8.36667 184.067H33.4667V200.8Z" fill="black"/>
<path fill-rule="evenodd" clip-rule="evenodd" d="M184.067 50.2C188.773 50.2 192.738 51.8123 195.963 55.037C199.188 58.2616 200.8 62.2271 200.8 66.9333V184.067C200.8 188.773 199.188 192.738 195.963 195.963C192.738 199.188 188.773 200.8 184.067 200.8H66.9333C62.4014 200.8 58.4795 199.144 55.1677 195.832C51.8559 192.52 50.2 188.599 50.2 184.067V66.9333C50.2 62.4014 51.8559 58.4795 55.1677 55.1677C58.4795 51.8559 62.4014 50.2 66.9333 50.2H184.067ZM69.3238 156.975H82.0139L86.9077 127.32H114.196L109.302 156.975H121.993L131.088 101.858H133.07V101.854H150.774L141.651 156.975H154.423L163.464 101.854H183.204L184.863 91.6349H120.085L115.938 116.849H88.7324L92.7967 91.6349H80.1066L69.3238 156.975Z" fill="black"/>
<path d="M242.633 184.067C244.899 184.067 246.86 184.895 248.516 186.551C250.172 188.206 251 190.167 251 192.433C251 194.699 250.172 196.66 248.516 198.316C246.86 199.972 244.899 200.8 242.633 200.8H217.533V184.067H242.633Z" fill="black"/>
<path d="M33.4667 167.333H8.36667C6.10069 167.333 4.13976 166.505 2.48385 164.849C0.827951 163.194 0 161.233 0 158.967C0 156.701 0.827951 154.74 2.48385 153.084C4.13976 151.428 6.10069 150.6 8.36667 150.6H33.4667V167.333Z" fill="black"/>
<path d="M242.633 150.6C244.899 150.6 246.86 151.428 248.516 153.084C250.172 154.74 251 156.701 251 158.967C251 161.233 250.172 163.194 248.516 164.849C246.86 166.505 244.899 167.333 242.633 167.333H217.533V150.6H242.633Z" fill="black"/>
<path d="M33.4667 133.867H8.36667C6.10069 133.867 4.13976 133.039 2.48385 131.383C0.827951 129.727 0 127.766 0 125.5C0 123.234 0.827951 121.273 2.48385 119.617C4.13976 117.961 6.10069 117.133 8.36667 117.133H33.4667V133.867Z" fill="black"/>
<path d="M242.633 117.133C244.899 117.133 246.86 117.961 248.516 119.617C250.172 121.273 251 123.234 251 125.5C251 127.766 250.172 129.727 248.516 131.383C246.86 133.039 244.899 133.867 242.633 133.867H217.533V117.133H242.633Z" fill="black"/>
<path d="M33.4667 100.4H8.36667C6.10069 100.4 4.13976 99.5721 2.48385 97.9161C0.827951 96.2602 0 94.2993 0 92.0333C0 89.7674 0.827951 87.8064 2.48385 86.1505C4.13976 84.4946 6.10069 83.6667 8.36667 83.6667H33.4667V100.4Z" fill="black"/>
<path d="M242.633 83.6667C244.899 83.6667 246.86 84.4946 248.516 86.1505C250.172 87.8064 251 89.7674 251 92.0333C251 94.2993 250.172 96.2602 248.516 97.9161C246.86 99.5721 244.899 100.4 242.633 100.4H217.533V83.6667H242.633Z" fill="black"/>
<path d="M33.4667 66.9333H8.36667C6.10069 66.9333 4.13976 66.1054 2.48385 64.4495C0.827951 62.7936 0 60.8326 0 58.5667C0 56.3007 0.827951 54.3398 2.48385 52.6839C4.13976 51.028 6.10069 50.2 8.36667 50.2H33.4667V66.9333Z" fill="black"/>
<path d="M242.633 50.2C244.899 50.2 246.86 51.028 248.516 52.6839C250.172 54.3398 251 56.3007 251 58.5667C251 60.8326 250.172 62.7936 248.516 64.4495C246.86 66.1054 244.899 66.9333 242.633 66.9333H217.533V50.2H242.633Z" fill="black"/>
<path d="M58.5667 0C60.8326 0 62.7936 0.827951 64.4495 2.48385C66.1054 4.13976 66.9333 6.10069 66.9333 8.36667V33.4667H50.2V8.36667C50.2 6.10069 51.028 4.13976 52.6839 2.48385C54.3398 0.827951 56.3007 0 58.5667 0Z" fill="black"/>
<path d="M92.0333 0C94.2993 0 96.2602 0.827951 97.9161 2.48385C99.5721 4.13976 100.4 6.10069 100.4 8.36667V33.4667H83.6667V8.36667C83.6667 6.10069 84.4946 4.13976 86.1505 2.48385C87.8064 0.827951 89.7674 0 92.0333 0Z" fill="black"/>
<path d="M125.5 0C127.766 0 129.727 0.827951 131.383 2.48385C133.039 4.13976 133.867 6.10069 133.867 8.36667V33.4667H117.133V8.36667C117.133 6.10069 117.961 4.13976 119.617 2.48385C121.273 0.827951 123.234 0 125.5 0Z" fill="black"/>
<path d="M158.967 0C161.233 0 163.194 0.827951 164.849 2.48385C166.505 4.13976 167.333 6.10069 167.333 8.36667V33.4667H150.6V8.36667C150.6 6.10069 151.428 4.13976 153.084 2.48385C154.74 0.827951 156.701 0 158.967 0Z" fill="black"/>
<path d="M192.433 0C194.699 0 196.66 0.827951 198.316 2.48385C199.972 4.13976 200.8 6.10069 200.8 8.36667V33.4667H184.067V8.36667C184.067 6.10069 184.895 4.13976 186.551 2.48385C188.206 0.827951 190.167 0 192.433 0Z" fill="black"/>
</svg>
